PathFileType	4	(X/Y/Z)	./resultDataOpenSim/trcMotMarkerGrf/sub10/qtm-14-08.trc
DataRate	CameraRate	NumFrames	NumMarkers	Units	OrigDataRate	OrigDataStartFrame	OrigNumFrames
250.000000	250.000000	11	24	m	250.000000	191	507
Frame#	Time	L.Toe.Tip			R.Toe.Tip			L.Ankle.Lat			R.Ankle.Lat			L.Ankle.Med			R.Ankle.Med			L.Heel			R.Heel			L.Knee.Lat			R.Knee.Lat			L.Knee.Med			R.Knee.Med			L.Thigh.Upper			R.Thigh.Upper			L.ASIS			R.ASIS			V.Sacral			L.Acromium			R.Acromium			C7			L.Elbow			R.Elbow			L.Wrist.Lat			R.Wrist.Lat
		X1	Y1	Z1	X2	Y2	Z2	X3	Y3	Z3	X4	Y4	Z4	X5	Y5	Z5	X6	Y6	Z6	X7	Y7	Z7	X8	Y8	Z8	X9	Y9	Z9	X10	Y10	Z10	X11	Y11	Z11	X12	Y12	Z12	X13	Y13	Z13	X14	Y14	Z14	X15	Y15	Z15	X16	Y16	Z16	X17	Y17	Z17	X18	Y18	Z18	X19	Y19	Z19	X20	Y20	Z20	X21	Y21	Z21	X22	Y22	Z22	X23	Y23	Z23	X24	Y24	Z24

191	0.76	0.052813065	-0.023080991	-0.05777459	-0.64944362	0.038274301	0.040878631	-0.079305199	-0.0065234392	-0.09014633	-0.71519695	0.15982186	0.082867482	-0.073195904	0.019985009	-0.0071536054	-0.66837499	0.15292347	0.0095958555	-0.14208389	-0.040756921	-0.047408553	-0.75427381	0.18109058	0.026784887	-0.093908575	0.38554273	-0.12702412	-0.39477847	0.39109348	0.12555135	-0.081673544	0.36755665	-0.0049720243	-0.35550114	0.37415468	0.0072527757	-0.1870941	0.76178217	-0.1888291	-0.30622502	0.78306795	0.17870327	-0.15162796	0.87431267	-0.11145839	-0.20540779	0.86759739	0.12873	-0.36842476	0.88749256	-0.037132851	-0.27701941	1.3432448	-0.16952338	-0.29534908	1.3373066	0.1548775	-0.37220354	1.3608514	-0.015747307	-0.41662588	1.0292283	-0.1901644	-0.28473657	0.9736247	0.20776503	-0.35690532	0.79651162	-0.22598718	-0.044158915	0.92342136	0.15551274
192	0.764	0.055849055	-0.026859839	-0.057143167	-0.64717062	0.038747619	0.040644437	-0.077150017	-0.0085109022	-0.089269591	-0.7066929	0.16421706	0.083339582	-0.071491025	0.017336597	-0.0059836553	-0.65948716	0.15555711	0.010801098	-0.14109567	-0.040808021	-0.046748158	-0.74439839	0.18756486	0.027505798	-0.090631934	0.38262762	-0.12740752	-0.38283137	0.38884457	0.12730734	-0.079021372	0.3639262	-0.0051359644	-0.34163783	0.3700714	0.0096005946	-0.17946379	0.76001544	-0.18944557	-0.2978889	0.78154971	0.17788821	-0.14442928	0.87311448	-0.11176974	-0.1974723	0.86658856	0.1274437	-0.36118825	0.88653272	-0.037942297	-0.27042677	1.3419063	-0.17052878	-0.28965325	1.3360622	0.15335345	-0.36534359	1.3591263	-0.017247621	-0.40995148	1.0282089	-0.19013971	-0.28114026	0.97249309	0.20722972	-0.35031508	0.79523313	-0.22741916	-0.040089984	0.92132733	0.1572541
193	0.768	0.058714171	-0.029341067	-0.056901519	-0.64415301	0.03988687	0.040667481	-0.075119637	-0.0097647758	-0.088086799	-0.69795902	0.16874614	0.083788946	-0.070210424	0.015143794	-0.0047047812	-0.65054878	0.15846866	0.011824104	-0.14012705	-0.040411406	-0.045647724	-0.73434903	0.19394241	0.028332934	-0.08696654	0.3800329	-0.1275065	-0.37081052	0.38642453	0.12921601	-0.076244997	0.3603586	-0.0052129737	-0.32752305	0.36580538	0.012053188	-0.17178365	0.75812583	-0.19017187	-0.28957186	0.7798923	0.1770006	-0.13748904	0.8717428	-0.11200126	-0.1894887	0.86547224	0.12610078	-0.35476815	0.88529742	-0.039327774	-0.26372732	1.3404796	-0.17155807	-0.28394006	1.3347556	0.15186842	-0.35845941	1.3573134	-0.018646391	-0.40323746	1.0269115	-0.19023863	-0.27744665	0.97132688	0.20682103	-0.34363913	0.79386032	-0.22890504	-0.036013044	0.91908085	0.15923158
194	0.772	0.060679068	-0.030630232	-0.056775813	-0.64044714	0.041695367	0.040987572	-0.073640891	-0.01030475	-0.086923547	-0.68886664	0.17344413	0.084270292	-0.069443739	0.01366419	-0.0036089152	-0.64151407	0.16166527	0.012657042	-0.13935106	-0.039923601	-0.044457969	-0.72409984	0.20029378	0.029268594	-0.082514586	0.378034	-0.12728314	-0.3587384	0.38385906	0.13127373	-0.072968143	0.35733934	-0.005138559	-0.31315253	0.3613506	0.014521144	-0.16400772	0.7561221	-0.19105286	-0.28128068	0.7780922	0.17603747	-0.13088455	0.87019885	-0.11218396	-0.18146545	0.86420154	0.12468075	-0.34887788	0.88388252	-0.041303307	-0.25689372	1.3389593	-0.17261388	-0.2782071	1.3334011	0.15045328	-0.35161107	1.3554441	-0.020013214	-0.39638646	1.0255716	-0.19040568	-0.2735888	0.97013879	0.20655574	-0.33686884	0.79238796	-0.23048221	-0.031912953	0.91667823	0.16145266
195	0.776	0.061563529	-0.031139445	-0.056531221	-0.63613198	0.044036249	0.041573694	-0.072937402	-0.010211844	-0.086098362	-0.67924864	0.17828516	0.084882762	-0.069136111	0.013072403	-0.0028830318	-0.63228225	0.16509177	0.01334255	-0.13886767	-0.039588396	-0.043653287	-0.71358814	0.20667121	0.030296826	-0.076984868	0.37683647	-0.12691427	-0.34662727	0.38118375	0.13349211	-0.068856789	0.35544749	-0.004837213	-0.29856505	0.35667506	0.016823676	-0.15613057	0.75412522	-0.19212052	-0.2730367	0.77616286	0.17501127	-0.12466149	0.86848483	-0.11236963	-0.17348672	0.86274695	0.12322176	-0.34293007	0.88256995	-0.0434636	-0.24993579	1.3373457	-0.17367295	-0.2724726	1.3320147	0.14915688	-0.34484997	1.3535322	-0.021395934	-0.38935713	1.024284	-0.19062088	-0.26959216	0.96892771	0.20638083	-0.33000326	0.79083259	-0.23220083	-0.027773714	0.91410977	0.16392352
196	0.78	0.061778938	-0.031317936	-0.056186777	-0.63118983	0.046745037	0.042395239	-0.072815737	-0.0096180764	-0.085698756	-0.66904934	0.18322843	0.085673369	-0.069160567	0.013276789	-0.0025798754	-0.62275939	0.16867936	0.013943426	-0.13861083	-0.039399962	-0.043417903	-0.70272742	0.21304806	0.031333463	-0.070303063	0.37646739	-0.12664128	-0.33446641	0.37843417	0.13585472	-0.063855084	0.35502372	-0.0042983369	-0.28379981	0.35178717	0.018872086	-0.14826855	0.75241378	-0.19335488	-0.26487513	0.77411725	0.17394926	-0.1188113	0.86661852	-0.11260294	-0.16570792	0.86110503	0.12180098	-0.33659332	0.88155106	-0.045323174	-0.24288725	1.3356594	-0.17471404	-0.26673646	1.3306243	0.14802452	-0.33820317	1.3515681	-0.022792024	-0.38218281	1.0229842	-0.19089749	-0.26551672	0.96769362	0.20616937	-0.32305092	0.78923232	-0.23412428	-0.02358386	0.91138089	0.16665424
197	0.784	0.06186048	-0.031445884	-0.055946609	-0.62550161	0.049737559	0.043485825	-0.072840559	-0.008724277	-0.085574462	-0.65836609	0.18824453	0.086595225	-0.069257662	0.013947468	-0.002597914	-0.61289855	0.17238494	0.014525576	-0.1384244	-0.039183775	-0.043486319	-0.6914101	0.21932588	0.032243317	-0.062608823	0.37678315	-0.12653518	-0.32217628	0.37562169	0.13827298	-0.058232298	0.35592417	-0.0036667332	-0.26888777	0.34677413	0.020733302	-0.14071189	0.75133128	-0.19467521	-0.25682619	0.77195852	0.17289744	-0.11327331	0.86463521	-0.11291278	-0.1582127	0.8592953	0.12043733	-0.33000129	0.88072823	-0.046757359	-0.23576549	1.3339346	-0.17574419	-0.26097945	1.329259	0.14708047	-0.33166971	1.349536	-0.024180674	-0.37485745	1.0215447	-0.19135873	-0.26139023	0.96645976	0.20577219	-0.31601097	0.78760681	-0.23627894	-0.019342678	0.90851458	0.16965507
198	0.788	0.062122658	-0.031612251	-0.055973146	-0.61891134	0.053042634	0.044954205	-0.072672785	-0.0077736433	-0.085499069	-0.64733408	0.19333342	0.087556519	-0.069089453	0.01473678	-0.0027266983	-0.6026906	0.17623531	0.01512523	-0.13818289	-0.038769885	-0.043452832	-0.67959446	0.2254288	0.032959614	-0.054171031	0.37758788	-0.12648751	-0.30961744	0.3727367	0.14061982	-0.0523558	0.35761905	-0.0031748662	-0.25387265	0.34180715	0.022484603	-0.13381155	0.75106185	-0.19599638	-0.24888057	0.7696876	0.17191969	-0.10795212	0.86257282	-0.11331778	-0.15097216	0.85735992	0.11907131	-0.32346551	0.87985867	-0.047878161	-0.22856535	1.3321996	-0.17677365	-0.25517726	1.3279328	0.14633056	-0.32521218	1.3474447	-0.025557088	-0.3673433	1.0198796	-0.19215743	-0.2572017	0.96527086	0.20514826	-0.30883927	0.78592469	-0.23860562	-0.015063888	0.90553759	0.17292381
199	0.792	0.062619637	-0.031812269	-0.056224541	-0.61129005	0.056729923	0.04691428	-0.072249293	-0.0069716921	-0.085327283	-0.63600076	0.19853322	0.088478993	-0.068482967	0.015446976	-0.0027891868	-0.59209701	0.18033098	0.015726587	-0.13782735	-0.038122107	-0.043154625	-0.66740813	0.2313514	0.033543371	-0.045292656	0.3787018	-0.12640254	-0.29667526	0.36979007	0.14278492	-0.04637399	0.35956315	-0.0029601789	-0.23880344	0.33714392	0.024094897	-0.12773324	0.7514528	-0.19729285	-0.24099614	0.76730579	0.17107912	-0.10273918	0.86046595	-0.11382451	-0.14394273	0.85534955	0.11763783	-0.317223	0.87881064	-0.048678089	-0.22128674	1.3304683	-0.17778515	-0.24930156	1.3266411	0.14576754	-0.31874656	1.3453551	-0.02693351	-0.35965751	1.0180077	-0.19330818	-0.25294699	0.9641557	0.20445585	-0.30146436	0.78414378	-0.24101304	-0.010775725	0.9024827	0.1764436
200	0.796	0.063242402	-0.032024254	-0.056531783	-0.60258208	0.060818976	0.049380482	-0.071711385	-0.0064134518	-0.085057181	-0.62434086	0.20388922	0.089312463	-0.067530742	0.016028311	-0.002735797	-0.58103065	0.18475467	0.016283369	-0.1373659	-0.037340345	-0.042701743	-0.65505971	0.23710329	0.034067417	-0.036241792	0.37991526	-0.1263089	-0.28334196	0.36686198	0.14466658	-0.040106649	0.36147431	-0.0029739258	-0.22373205	0.33310847	0.025459162	-0.12235851	0.75209057	-0.19858738	-0.23316348	0.76481495	0.17042821	-0.097545107	0.858358	-0.11441377	-0.13713208	0.85331358	0.11612631	-0.3113642	0.87759202	-0.049107555	-0.21394368	1.3287445	-0.17874562	-0.24331212	1.3253762	0.14536034	-0.31214781	1.3433889	-0.028313147	-0.35184861	1.0160061	-0.19471842	-0.24862969	0.96310897	0.2039237	-0.29384706	0.78227482	-0.24346861	-0.0065163267	0.89939856	0.1801924
201	0.8	0.063857838	-0.03223054	-0.056788593	-0.59281968	0.065262546	0.052269959	-0.071188588	-0.0060765113	-0.084790814	-0.6123331	0.20940636	0.090036662	-0.066410515	0.016494204	-0.0026030618	-0.56946405	0.18945294	0.016766549	-0.13686157	-0.036558012	-0.042270743	-0.64265701	0.24268308	0.0345221	-0.027228658	0.38096172	-0.12628983	-0.26972791	0.36410789	0.1461756	-0.033323545	0.36325581	-0.0031140789	-0.20872622	0.32999428	0.026488846	-0.11743827	0.75257561	-0.19989661	-0.22544354	0.76222925	0.17002912	-0.092338925	0.85630774	-0.1150372	-0.13058596	0.85129592	0.11459049	-0.30577273	0.87619293	-0.049371602	-0.20654857	1.3270326	-0.17962619	-0.23716472	1.3241406	0.14505317	-0.30528357	1.3416982	-0.029664333	-0.34388677	1.0139038	-0.19636326	-0.24422723	0.9620958	0.20362742	-0.28600257	0.78038216	-0.24599782	-0.0023266378	0.89633296	0.18415662
